<svg id="visual" viewBox="0 0 900 600" width="900" height="600" xmlns="http://www.w3.org/2000/svg" xmlns:xlink="http://www.w3.org/1999/xlink" version="1.1"><path d="M0 157L56 31L113 355L169 193L225 61L281 277L338 79L394 97L450 133L506 67L563 193L619 145L675 85L731 73L788 31L844 91L900 103L900 0L844 0L788 0L731 0L675 0L619 0L563 0L506 0L450 0L394 0L338 0L281 0L225 0L169 0L113 0L56 0L0 0Z" fill="#038373"></path><path d="M0 235L56 97L113 379L169 253L225 133L281 283L338 85L394 145L450 193L506 97L563 265L619 217L675 169L731 151L788 61L844 151L900 109L900 101L844 89L788 29L731 71L675 83L619 143L563 191L506 65L450 131L394 95L338 77L281 275L225 59L169 191L113 353L56 29L0 155Z" fill="#008d79"></path><path d="M0 307L56 133L113 391L169 331L225 247L281 421L338 175L394 241L450 283L506 211L563 289L619 277L675 271L731 187L788 163L844 187L900 199L900 107L844 149L788 59L731 149L675 167L619 215L563 263L506 95L450 191L394 143L338 83L281 281L225 131L169 251L113 377L56 95L0 233Z" fill="#00977e"></path><path d="M0 373L56 151L113 397L169 391L225 313L281 427L338 211L394 277L450 337L506 247L563 337L619 301L675 337L731 199L788 217L844 247L900 241L900 197L844 185L788 161L731 185L675 269L619 275L563 287L506 209L450 281L394 239L338 173L281 419L225 245L169 329L113 389L56 131L0 305Z" fill="#00a282"></path><path d="M0 439L56 313L113 439L169 451L225 427L281 481L338 229L394 343L450 409L506 391L563 385L619 397L675 355L731 343L788 241L844 361L900 301L900 239L844 245L788 215L731 197L675 335L619 299L563 335L506 245L450 335L394 275L338 209L281 425L225 311L169 389L113 395L56 149L0 371Z" fill="#00ac86"></path><path d="M0 463L56 349L113 475L169 493L225 457L281 517L338 289L394 391L450 457L506 397L563 421L619 475L675 379L731 379L788 247L844 433L900 325L900 299L844 359L788 239L731 341L675 353L619 395L563 383L506 389L450 407L394 341L338 227L281 479L225 425L169 449L113 437L56 311L0 437Z" fill="#00b789"></path><path d="M0 589L56 553L113 541L169 559L225 577L281 565L338 535L394 505L450 517L506 547L563 517L619 583L675 565L731 505L788 517L844 571L900 559L900 323L844 431L788 245L731 377L675 377L619 473L563 419L506 395L450 455L394 389L338 287L281 515L225 455L169 491L113 473L56 347L0 461Z" fill="#00c18c"></path><path d="M0 601L56 601L113 601L169 601L225 601L281 601L338 601L394 601L450 601L506 601L563 601L619 601L675 601L731 601L788 601L844 601L900 601L900 557L844 569L788 515L731 503L675 563L619 581L563 515L506 545L450 515L394 503L338 533L281 563L225 575L169 557L113 539L56 551L0 587Z" fill="#00cc8e"></path></svg>