<svg id="visual" viewBox="0 0 900 600" width="900" height="600" xmlns="http://www.w3.org/2000/svg" xmlns:xlink="http://www.w3.org/1999/xlink" version="1.1"><path d="M0 121L13.7 118C27.3 115 54.7 109 82 100C109.3 91 136.7 79 163.8 86C191 93 218 119 245.2 126C272.3 133 299.7 121 327 122C354.3 123 381.7 137 409 139C436.3 141 463.7 131 491 122C518.3 113 545.7 105 573 102C600.3 99 627.7 101 654.8 95C682 89 709 75 736.2 70C763.3 65 790.7 69 818 72C845.3 75 872.7 77 886.3 78L900 79L900 0L886.3 0C872.7 0 845.3 0 818 0C790.7 0 763.3 0 736.2 0C709 0 682 0 654.8 0C627.7 0 600.3 0 573 0C545.7 0 518.3 0 491 0C463.7 0 436.3 0 409 0C381.7 0 354.3 0 327 0C299.7 0 272.3 0 245.2 0C218 0 191 0 163.8 0C136.7 0 109.3 0 82 0C54.7 0 27.3 0 13.7 0L0 0Z" fill="#3ba8b9"></path><path d="M0 349L13.7 349C27.3 349 54.7 349 82 319C109.3 289 136.7 229 163.8 218C191 207 218 245 245.2 253C272.3 261 299.7 239 327 240C354.3 241 381.7 265 409 280C436.3 295 463.7 301 491 307C518.3 313 545.7 319 573 305C600.3 291 627.7 257 654.8 251C682 245 709 267 736.2 264C763.3 261 790.7 233 818 244C845.3 255 872.7 305 886.3 330L900 355L900 77L886.3 76C872.7 75 845.3 73 818 70C790.7 67 763.3 63 736.2 68C709 73 682 87 654.8 93C627.7 99 600.3 97 573 100C545.7 103 518.3 111 491 120C463.7 129 436.3 139 409 137C381.7 135 354.3 121 327 120C299.7 119 272.3 131 245.2 124C218 117 191 91 163.8 84C136.7 77 109.3 89 82 98C54.7 107 27.3 113 13.7 116L0 119Z" fill="#2597a8"></path><path d="M0 415L13.7 414C27.3 413 54.7 411 82 390C109.3 369 136.7 329 163.8 315C191 301 218 313 245.2 320C272.3 327 299.7 329 327 342C354.3 355 381.7 379 409 384C436.3 389 463.7 375 491 378C518.3 381 545.7 401 573 397C600.3 393 627.7 365 654.8 363C682 361 709 385 736.2 373C763.3 361 790.7 313 818 314C845.3 315 872.7 365 886.3 390L900 415L900 353L886.3 328C872.7 303 845.3 253 818 242C790.7 231 763.3 259 736.2 262C709 265 682 243 654.8 249C627.7 255 600.3 289 573 303C545.7 317 518.3 311 491 305C463.7 299 436.3 293 409 278C381.7 263 354.3 239 327 238C299.7 237 272.3 259 245.2 251C218 243 191 205 163.8 216C136.7 227 109.3 287 82 317C54.7 347 27.3 347 13.7 347L0 347Z" fill="#028698"></path><path d="M0 457L13.7 464C27.3 471 54.7 485 82 473C109.3 461 136.7 423 163.8 407C191 391 218 397 245.2 400C272.3 403 299.7 403 327 413C354.3 423 381.7 443 409 451C436.3 459 463.7 455 491 454C518.3 453 545.7 455 573 448C600.3 441 627.7 425 654.8 433C682 441 709 473 736.2 456C763.3 439 790.7 373 818 366C845.3 359 872.7 411 886.3 437L900 463L900 413L886.3 388C872.7 363 845.3 313 818 312C790.7 311 763.3 359 736.2 371C709 383 682 359 654.8 361C627.7 363 600.3 391 573 395C545.7 399 518.3 379 491 376C463.7 373 436.3 387 409 382C381.7 377 354.3 353 327 340C299.7 327 272.3 325 245.2 318C218 311 191 299 163.8 313C136.7 327 109.3 367 82 388C54.7 409 27.3 411 13.7 412L0 413Z" fill="#017483"></path><path d="M0 601L13.7 601C27.3 601 54.7 601 82 601C109.3 601 136.7 601 163.8 601C191 601 218 601 245.2 601C272.3 601 299.7 601 327 601C354.3 601 381.7 601 409 601C436.3 601 463.7 601 491 601C518.3 601 545.7 601 573 601C600.3 601 627.7 601 654.8 601C682 601 709 601 736.2 601C763.3 601 790.7 601 818 601C845.3 601 872.7 601 886.3 601L900 601L900 461L886.3 435C872.7 409 845.3 357 818 364C790.7 371 763.3 437 736.2 454C709 471 682 439 654.8 431C627.7 423 600.3 439 573 446C545.7 453 518.3 451 491 452C463.7 453 436.3 457 409 449C381.7 441 354.3 421 327 411C299.7 401 272.3 401 245.2 398C218 395 191 389 163.8 405C136.7 421 109.3 459 82 471C54.7 483 27.3 469 13.7 462L0 455Z" fill="#01626f"></path></svg>